<?xml version="1.0" encoding="UTF-8" standalone="no"?>
<svg
   height="24px"
   viewBox="0 -960 960 960"
   width="24px"
   fill="#e3e3e3"
   version="1.1"
   id="svg1"
   sodipodi:docname="trmnl-terminus-logo.svg"
   xml:space="preserve"
   inkscape:version="1.4 (e7c3feb1, 2024-10-09)"
   inkscape:export-filename="trmnl-terminus-icon.png"
   inkscape:export-xdpi="1024"
   inkscape:export-ydpi="1024"
   xmlns:inkscape="http://www.inkscape.org/namespaces/inkscape"
   xmlns:sodipodi="http://sodipodi.sourceforge.net/DTD/sodipodi-0.dtd"
   xmlns="http://www.w3.org/2000/svg"
   xmlns:svg="http://www.w3.org/2000/svg"><defs
     id="defs1" /><sodipodi:namedview
     id="namedview1"
     pagecolor="#ffffff"
     bordercolor="#000000"
     borderopacity="0.25"
     inkscape:showpageshadow="2"
     inkscape:pageopacity="0.0"
     inkscape:pagecheckerboard="0"
     inkscape:deskcolor="#d1d1d1"
     inkscape:zoom="24.513035"
     inkscape:cx="10.667794"
     inkscape:cy="12.993087"
     inkscape:window-width="1680"
     inkscape:window-height="888"
     inkscape:window-x="0"
     inkscape:window-y="25"
     inkscape:window-maximized="0"
     inkscape:current-layer="svg1" /><path
     d="M240-120v-80h200v-120H160q-33 0-56.5-23.5T80-400v-360q0-33 23.5-56.5T160-840h640q33 0 56.5 23.5T880-760v360q0 33-23.5 56.5T800-320H520v120h200v80H240Zm-80-280h640v-360H160v360Zm0 0v-360 360Z"
     id="path1"
     style="fill:#e05b44;fill-opacity:1" /><g
     style="fill:#e05b44;fill-opacity:1"
     id="g1"
     transform="matrix(0.32555625,0,0,0.32555625,323.733,-429.77774)"><path
       d="m 170,-228 q -38,-45 -61,-99 -23,-54 -29,-113 h 82 q 6,43 22,82.5 16,39.5 42,73.5 z M 80,-520 q 8,-59 30,-113 22,-54 60,-99 l 56,56 q -26,34 -42,73.5 -16,39.5 -22,82.5 z M 438,-82 Q 379,-88 325.5,-110.5 272,-133 226,-170 l 56,-58 q 35,26 74,43 39,17 82,23 z m -154,-650 -58,-58 q 47,-37 101,-59.5 54,-22.5 113,-28.5 v 80 q -43,6 -82.5,23 -39.5,17 -73.5,43 z m 196,372 q -50,0 -85,-35 -35,-35 -35,-85 0,-50 35,-85 35,-35 85,-35 50,0 85,35 35,35 35,85 0,50 -35,85 -35,35 -85,35 z m 38,278 v -80 q 44,-6 83.5,-22.5 Q 641,-201 676,-228 l 58,58 q -47,38 -101.5,60 Q 578,-88 518,-82 Z m 160,-650 q -35,-26 -75,-43 -40,-17 -83,-23 v -80 q 59,6 113.5,28.5 Q 688,-827 734,-790 Z m 112,504 -56,-56 q 26,-34 42,-73.5 16,-39.5 22,-82.5 h 82 q -8,59 -30,113 -22,54 -60,99 z m 8,-292 q -6,-43 -22,-82.5 -16,-39.5 -42,-73.5 l 56,-56 q 38,45 61,99 23,54 29,113 z"
       id="path1-5"
       style="fill:#e05b44;fill-opacity:1" /></g></svg>
